<svg width="9" height="9" viewBox="0 0 9 9" fill="none" xmlns="http://www.w3.org/2000/svg">
<path d="M4.5 0.75C6.57 0.75 8.25 2.43 8.25 4.5C8.25 6.57 6.57 8.25 4.5 8.25C2.43 8.25 0.75 6.57 0.75 4.5C0.75 2.43 2.43 0.75 4.5 0.75ZM4.5 1.5C2.8425 1.5 1.5 2.8425 1.5 4.5C1.5 6.1575 2.8425 7.5 4.5 7.5C6.1575 7.5 7.5 6.1575 7.5 4.5C7.5 2.8425 6.1575 1.5 4.5 1.5ZM4.5 2.625C5.1825 2.625 5.77987 2.98988 6.108 3.5355L5.46525 3.92137C5.3641 3.75272 5.2205 3.61352 5.04877 3.51767C4.87705 3.42181 4.6832 3.37265 4.48654 3.37509C4.28989 3.37752 4.09731 3.43146 3.92801 3.53153C3.75871 3.63161 3.6186 3.77431 3.52165 3.94542C3.4247 4.11653 3.3743 4.31007 3.37548 4.50673C3.37666 4.70339 3.42937 4.89631 3.52836 5.06625C3.62734 5.23619 3.76915 5.37721 3.93964 5.47524C4.11012 5.57329 4.30333 5.62492 4.5 5.625C4.6943 5.62513 4.88532 5.5749 5.05442 5.4792C5.22352 5.38351 5.36494 5.24563 5.46488 5.079L6.108 5.4645C5.89726 5.81648 5.57687 6.08961 5.19597 6.24201C4.81508 6.3944 4.39471 6.41763 3.99934 6.30815C3.60397 6.19866 3.25543 5.9625 3.00718 5.63589C2.75893 5.30928 2.62467 4.91025 2.625 4.5C2.625 3.465 3.465 2.625 4.5 2.625Z" fill="#221359"/>
</svg>
